<?xml version="1.0" standalone="no"?><!DOCTYPE svg PUBLIC "-//W3C//DTD SVG 1.1//EN" "http://www.w3.org/Graphics/SVG/1.1/DTD/svg11.dtd"><svg t="1601219352015" class="icon" viewBox="0 0 1024 1024" version="1.1" xmlns="http://www.w3.org/2000/svg" p-id="1289" xmlns:xlink="http://www.w3.org/1999/xlink" width="200" height="200"><defs><style type="text/css"></style></defs><path d="M900.8 645.8c57.24-206.85-50.22-443.72-268.64-561.63-0.32-0.17-0.64-0.33-0.96-0.5 129.55 70.53 137.14 307.98 16.84 530.83S325.05 961.27 195.01 891.67c0.32 0.17 0.63 0.35 0.95 0.53 249.62 134.75 549.62 63.11 670.07-160.02a414.252 414.252 0 0 0 34.77-86.38z" fill="#55C300" p-id="1290"></path><path d="M648.04 614.49c120.3-222.84 112.71-460.3-16.84-530.83-0.7-0.37-1.39-0.73-2.09-1.1-130.08-68.33-331.97 55.52-451.93 277.74S64.43 819.26 192.94 890.52c0.69 0.38 1.37 0.77 2.07 1.15 130.04 69.6 332.73-54.33 453.03-277.18z" fill="#CCF550" p-id="1291"></path><path d="M623.1 596.51c111.73-206.96 109.17-425.07-5.61-487.59-0.62-0.33-1.24-0.64-1.85-0.97-115.3-60.49-298.33 56.94-409.75 263.33s-109.17 423.84 4.66 487.05c0.61 0.34 1.21 0.68 1.83 1.02 115.24 61.64 299-55.88 410.72-262.84z" fill="#DFF5B5" p-id="1292"></path><path d="M905.87 619.28s3.06 15.31 11.92 49.71c2.41 9.34 5.4 18.52 8.66 27.6 7.19 20.01 17.52 67.63-36.42 88.33-26.41 10.13-52.5 21.07-77.55 34.19l-18.92 9.91 112.31-209.74z" fill="#55C300" p-id="1293"></path><path d="M412.91 485.58m-23.12 0a23.12 23.12 0 1 0 46.24 0 23.12 23.12 0 1 0-46.24 0Z" fill="#E9F5C9" p-id="1294"></path><path d="M551.96 232.88c3.84-7 8-13.49 12.11-20.07a43 43 0 0 0 4.87-10.87c7.87-27.22-12.37-56.99-45.22-66.49s-65.85 4.86-73.73 32.08a43.02 43.02 0 0 0-1.69 11.79c-0.03 7.75 0.02 15.47-0.47 23.43L434.91 414c-0.82 13.33 8.78 16.1 15.2 4.4l101.85-185.52zM639.09 365.96c6.24-3.1 12.51-5.64 18.78-8.26 3.18-1.33 6.14-3.14 8.8-5.44 18.54-16.07 15.41-50.04-6.98-75.88s-55.58-33.75-74.12-17.69c-2.66 2.3-4.86 4.97-6.63 7.94-3.49 5.84-6.89 11.68-10.84 17.42L463.3 436.14c-6.61 9.6-0.07 17.14 10.36 11.96l165.43-82.14zM299.85 335.7c-3.78-3.66-7.85-6.9-11.88-10.21-2.05-1.68-3.69-3.67-4.84-5.99-8.08-16.17 10.16-41.67 40.75-56.95 30.58-15.29 61.93-14.57 70.01 1.59 1.16 2.32 1.77 4.83 1.88 7.47 0.22 5.21 0.37 10.4 1.03 15.63l17.5 138.53c1.1 8.74-7.83 13.2-14.15 7.07l-100.3-97.14zM609.93 513.58c4.98 1.26 9.77 2.98 14.58 4.64 2.45 0.84 4.94 1.17 7.45 0.92 17.5-1.74 28.94-30.74 25.55-64.76-3.39-34.02-20.32-60.19-37.82-58.45-2.51 0.25-4.89 1.06-7.12 2.37-4.4 2.57-8.75 5.21-13.38 7.42l-122.97 58.75c-7.76 3.71-6.77 13.64 1.57 15.75l132.14 33.36zM507.1 675.77c2.82 5.48 6.02 10.57 9.16 15.73 1.6 2.62 2.72 5.45 3.3 8.47 4.02 21.11-19.96 43.4-53.54 49.79-33.59 6.39-64.07-5.54-68.09-26.64-0.58-3.02-0.57-6.07-0.05-9.09 1.03-5.95 2.13-11.87 2.75-18l16.19-162.49c1.02-10.25 10.83-12.12 15.55-2.96l74.73 145.19zM247.09 614.08c-4.79 3.98-9.12 8.25-13.52 12.47a25.684 25.684 0 0 1-7.64 5.12c-19.94 8.65-47.13-9.77-60.74-41.13s-8.48-63.81 11.46-72.46c2.86-1.24 5.86-1.92 8.95-2.08 6.09-0.33 12.17-0.57 18.34-1.35l163.73-20.59c10.33-1.3 14.3 7.86 6.3 14.52l-126.88 105.5zM240.01 488.28c-4.88 0.54-9.65 1.56-14.43 2.52-2.43 0.49-4.82 0.46-7.14-0.14-16.16-4.19-22.29-34.42-13.71-67.52 8.59-33.1 28.64-56.53 44.8-52.34 2.31 0.6 4.42 1.74 6.31 3.35 3.72 3.16 7.39 6.38 11.39 9.22l106.14 75.35c6.7 4.75 4.19 14.42-3.97 15.32l-129.39 14.24zM322.09 758.38c-3.04 8.43-5.46 16.7-7.98 25a54.608 54.608 0 0 1-5.44 12.25c-16.49 27.38-53.6 35.27-82.89 17.64-29.29-17.64-39.67-54.13-23.19-81.51 2.36-3.92 5.15-7.44 8.28-10.54 6.16-6.11 12.34-12.12 18.37-18.75L389.05 526.8c10.08-11.08 18.64-5.93 13.56 8.16l-80.52 223.42zM527.42 620.69c2.44 3.81 4.46 7.87 6.54 11.9 1.06 2.04 2.47 3.72 4.26 4.96 12.5 8.65 38.41-7.13 57.86-35.25 19.46-28.12 25.09-57.92 12.59-66.57-1.79-1.24-3.86-1.97-6.14-2.24-4.5-0.53-9.01-0.98-13.44-1.93l-117.45-24.99c-7.41-1.58-13.09 6.63-9 13.01l64.78 101.11z" fill="#C4E860" p-id="1295"></path></svg>